<svg width="128" height="128" viewBox="0 0 128 128" fill="none" xmlns="http://www.w3.org/2000/svg" xmlns:xlink="http://www.w3.org/1999/xlink">
<path d="M126.74,107.04C107.964,72.74 89.18,38.44 70.4,4.14C69.774,2.953 68.835,1.959 67.686,1.266C66.537,0.573 65.22,0.207 63.878,0.207C62.536,0.207 61.219,0.573 60.07,1.266C58.921,1.959 57.982,2.953 57.356,4.14C38.578,38.44 19.784,72.74 1.016,107.04C-1.89,112.338 1.814,119.206 7.532,119.206L120.232,119.206C123.4,119.206 125.528,117.5 126.638,115.186C128.034,112.982 128.408,110.056 126.748,107.036Z" fill="#FFDD15"/>
<path d="M57.834,68.954L56.056,42.43C55.724,37.264 55.564,33.552 55.564,31.3C55.564,28.232 56.364,25.846 57.968,24.124C59.578,22.412 61.694,21.552 64.318,21.552C67.484,21.552 69.61,22.654 70.674,24.844C71.748,27.048 72.292,30.212 72.292,34.346C72.292,36.776 72.16,39.252 71.896,41.762L69.516,69.06C69.258,72.312 68.708,74.804 67.862,76.538C67.01,78.28 65.606,79.14 63.644,79.14C61.66,79.14 60.264,78.302 59.5,76.626C58.714,74.944 58.164,72.386 57.834,68.954ZM63.978,105.388C61.728,105.388 59.766,104.664 58.084,103.202C56.402,101.746 55.564,99.706 55.564,97.086C55.564,94.8 56.364,92.846 57.968,91.244C59.578,89.632 61.54,88.832 63.87,88.832C66.2,88.832 68.176,89.632 69.824,91.244C71.454,92.846 72.292,94.8 72.292,97.086C72.292,99.666 71.454,101.702 69.8,103.174C68.21,104.623 66.129,105.414 63.978,105.388Z" fill="#1F2E35"/>
</svg>
